<svg xmlns="http://www.w3.org/2000/svg" width="112.684" height="130" viewBox="0 0 112.684 130">
  <metadata><?xpacket begin="﻿" id="W5M0MpCehiHzreSzNTczkc9d"?>
<x:xmpmeta xmlns:x="adobe:ns:meta/" x:xmptk="Adobe XMP Core 5.6-c138 79.159824, 2016/09/14-01:09:01        ">
   <rdf:RDF xmlns:rdf="http://www.w3.org/1999/02/22-rdf-syntax-ns#">
      <rdf:Description rdf:about=""/>
   </rdf:RDF>
</x:xmpmeta>
                                                                                                    
                                                                                                    
                                                                                                    
                                                                                                    
                                                                                                    
                                                                                                    
                                                                                                    
                                                                                                    
                                                                                                    
                                                                                                    
                                                                                                    
                                                                                                    
                                                                                                    
                                                                                                    
                                                                                                    
                                                                                                    
                                                                                                    
                                                                                                    
                                                                                                    
                                                                                                    
                           
<?xpacket end="w"?></metadata>
<defs>
    <style>
      .cls-1 {
        fill: #e1e1e5;
        fill-rule: evenodd;
      }
    </style>
  </defs>
  <path id="ico" class="cls-1" d="M1009.19,479.333h-12.5l12.446,58.045a2.322,2.322,0,0,1,.05.455,2.166,2.166,0,0,1-2.17,2.166h-8.671a2.166,2.166,0,0,1-2.12-1.712L990.1,509.666H919.9l-6.133,28.621a2.168,2.168,0,0,1-2.12,1.712h-8.67a2.129,2.129,0,0,1-.456-0.049,2.164,2.164,0,0,1-1.663-2.572L913.3,479.333h-12.49a2.167,2.167,0,0,1-2.168-2.167V455.5a2.166,2.166,0,0,1,2.168-2.166h39.013v-6.5a2.168,2.168,0,0,1,2.167-2.167h2.168v-6.5a10.837,10.837,0,0,1,21.674,0v6.5H968a2.168,2.168,0,0,1,2.168,2.167v6.5h39.018a2.164,2.164,0,0,1,2.16,2.166v21.666A2.165,2.165,0,0,1,1009.19,479.333Zm-9.09,56.332h4.24l-12.08-56.332h-4.237Zm-10.937-30.333L988.23,501H921.769l-0.933,4.333h68.327Zm-1.855-8.666-3.715-17.333H926.407l-3.715,17.333h64.616Zm-81.645,39H909.9l12.078-56.332H917.74Zm-2.682-78v14.318l14.325-14.318H902.981Zm20.455,0L906.1,475h15.545l17.339-17.333H923.436ZM927.77,475h15.545l17.339-17.333H945.11ZM961.5,438.167a6.5,6.5,0,0,0-13.006,0h0v6.5h13v-6.5ZM965.837,449H944.162v4.334h21.675V449Zm0.946,8.667L949.444,475h17.712l17.34-17.333H966.783Zm23.843,0L973.287,475h15.525l17.348-17.333H990.626Zm16.394,5.273L994.955,475h12.065V462.94Zm-26.011-22.606h-8.67a2.168,2.168,0,0,1,0-4.335h8.67A2.168,2.168,0,1,1,981.009,440.334Zm-2.4-13.291-7.509,4.333a2.167,2.167,0,1,1-2.168-3.753l7.511-4.333A2.167,2.167,0,0,1,978.609,427.043Zm-13.062-2.8a2.168,2.168,0,0,1-3.755-2.167l4.335-7.507a2.167,2.167,0,0,1,3.754,2.167ZM955,423a2.167,2.167,0,0,1-2.167-2.166v-8.667a2.167,2.167,0,1,1,4.334,0v8.665A2.168,2.168,0,0,1,955,423Zm-7.592,2.052a2.168,2.168,0,0,1-2.955-.813l-4.335-7.507a2.167,2.167,0,0,1,3.754-2.167l4.336,7.507,0.013,0.025A2.165,2.165,0,0,1,947.408,425.052Zm-6.316,2.586a2.167,2.167,0,1,1-2.192,3.738l-7.51-4.333a2.167,2.167,0,0,1,2.167-3.753l7.511,4.333Zm-1.265,10.529a2.167,2.167,0,0,1-2.167,2.167h-8.669a2.168,2.168,0,1,1,0-4.335h8.669A2.167,2.167,0,0,1,939.827,438.167Z" transform="translate(-898.656 -410)"/>
</svg>
