<svg xmlns="http://www.w3.org/2000/svg" width="130" height="130" viewBox="0 0 130 130">
  <metadata><?xpacket begin="﻿" id="W5M0MpCehiHzreSzNTczkc9d"?>
<x:xmpmeta xmlns:x="adobe:ns:meta/" x:xmptk="Adobe XMP Core 5.6-c138 79.159824, 2016/09/14-01:09:01        ">
   <rdf:RDF xmlns:rdf="http://www.w3.org/1999/02/22-rdf-syntax-ns#">
      <rdf:Description rdf:about=""/>
   </rdf:RDF>
</x:xmpmeta>
                                                                                                    
                                                                                                    
                                                                                                    
                                                                                                    
                                                                                                    
                                                                                                    
                                                                                                    
                                                                                                    
                                                                                                    
                                                                                                    
                                                                                                    
                                                                                                    
                                                                                                    
                                                                                                    
                                                                                                    
                                                                                                    
                                                                                                    
                                                                                                    
                                                                                                    
                                                                                                    
                           
<?xpacket end="w"?></metadata>
<defs>
    <style>
      .cls-1 {
        fill: #e1e1e5;
        fill-rule: evenodd;
      }
    </style>
  </defs>
  <path id="ico" class="cls-1" d="M953.2,425.556a2.533,2.533,0,0,0-1.14,4.936,34.582,34.582,0,1,1-18.687.841,2.533,2.533,0,0,0-1.583-4.812,39.264,39.264,0,0,0-15.632,9.637A39.677,39.677,0,1,0,953.2,425.556Zm63.325,94.317L989.985,493.33a54.183,54.183,0,1,0-16.679,16.685l26.534,26.543A11.8,11.8,0,1,0,1016.52,519.873Zm-3.58,13.1a6.76,6.76,0,0,1-9.52,0l-28-28.009a2.533,2.533,0,0,0-3.234-.291,49.179,49.179,0,1,1,12.461-12.465,2.533,2.533,0,0,0,.291,3.235l28,28.009A6.749,6.749,0,0,1,1012.94,532.976ZM959.5,448.942a2.532,2.532,0,0,0-3.581,0l-11.7,11.709-11.706-11.709a2.533,2.533,0,0,0-3.581,3.582l11.7,11.709-11.7,11.709a2.533,2.533,0,0,0,3.581,3.582l11.7-11.709,11.7,11.709a2.533,2.533,0,0,0,3.582-3.582L947.8,464.233,959.5,452.524A2.535,2.535,0,0,0,959.5,448.942ZM942.54,429.633a2.533,2.533,0,1,0-2.533-2.534A2.537,2.537,0,0,0,942.54,429.633Z" transform="translate(-890 -410)"/>
</svg>
